<svg id="BZX" xmlns="http://www.w3.org/2000/svg" width="512" height="512" viewBox="0 0 512 512">
<defs>
    <style>
      .cls-1, .cls-2 {
        fill-rule: evenodd;
      }

      .cls-2 {
        fill: #fff;
      }
    </style>
  </defs>
  <path id="Full" class="cls-1" d="M11,256c0,135.094,109.906,245,245,245S501,391.094,501,256,391.094,11,256,11,11,120.906,11,256Z"/>
  <path id="Shape" class="cls-2" d="M256,422L112.013,339V173L256,90l143.987,83V339Zm0-17.91L127.548,330.044V181.956L256,107.912l128.452,74.044V330.044Zm0-19.6L144.551,320.243V191.757L256,127.515l111.449,64.242V320.243Z"/>
  <path id="BZX-2" data-name="BZX" class="cls-1" d="M169.093,311.3c-0.486-.908-1.279-6.21.955-10.489,2.656-4.3,43.778-37.373,46.8-40.047-4.692-3.666-34.748-18.334-35.336-20.978s1.03-8.765,2.865-9.535,44,23.738,44.886,25.745,1.053,8.886,0,10.489-47.044,37.532-46.8,40.047c0.518,1.7,37.908,21.958,38.2,22.884s-0.531,9.35-2.865,9.535C216.9,339.064,169.578,312.211,169.093,311.3Zm26.74-142.073,9.551-5.721,10.505,6.674,7.64-4.767-10.5-6.675,9.55-5.721,12.415,7.628a35.469,35.469,0,0,1,28.651.954c11.425,4.346,9.55,14.3,9.55,14.3s18.448-5.627,31.516,3.814c14.439,9.466,1.91,21.931,1.91,21.931l8.6,5.721-9.551,5.721-8.6-4.767-7.64,3.814,8.6,5.721-9.55,5.721-9.55-4.768-8.6,4.768-72.582-41.955,8.6-5.721ZM217.8,180.673s17.709-10.9,21.011-12.4,12.123-2.515,17.19.954c7.981,6.272,0,11.442,0,11.442l-19.1,11.442Zm28.651,17.163s18.379-10.541,21.965-12.4,14.187-4.868,21.966-.953c12.54,6.724,2.865,13.349,2.865,13.349l-23.876,14.3Zm48.706,60.071c0.34-1.907,9.728-6.772,11.46-6.675s11.3,20.508,12.416,20.978,18.346-37,20.055-39.094,8.536-7.239,10.506-6.675-24.479,50.648-24.831,53.4S341.08,310.388,341,312.257s-9.541,8.16-11.46,7.628c-1.764-.932-11.307-23.635-13.37-23.838s-22.16,43.917-22.921,44.815-10.74,7.6-11.46,5.721,28.794-56.4,28.65-59.117S294.816,259.814,295.156,257.907Zm-174.77,20.024a4.541,4.541,0,0,0-4.775,4.767,4.864,4.864,0,0,0,3.82,4.768v45.768l46.8,27.652s-0.445,3.416,1.91,4.768,5.727,0.49,6.685-.954,0.617-4.209-1.91-5.721c-2.155-1.769-5.73,0-5.73,0l-45.842-26.7V287.466a4.73,4.73,0,0,0,3.82-4.768C125.149,278.955,122.547,277.931,120.386,277.931Zm271.192-46.722a4.566,4.566,0,0,0,4.811-4.782,4.887,4.887,0,0,0-3.849-4.782V175.737L345.393,148s0.448-3.427-1.924-4.782-5.771-.492-6.736.956-0.621,4.222,1.925,5.739c2.171,1.773,5.773,0,5.773,0l46.185,26.779v44.951a4.753,4.753,0,0,0-3.849,4.782C386.779,230.181,389.4,231.209,391.578,231.209Z"/>
</svg>
